<svg xmlns="http://www.w3.org/2000/svg" width="104" height="36.969" viewBox="0 0 104 36.969">
  <metadata><?xpacket begin="﻿" id="W5M0MpCehiHzreSzNTczkc9d"?>
<x:xmpmeta xmlns:x="adobe:ns:meta/" x:xmptk="Adobe XMP Core 5.6-c140 79.160451, 2017/05/06-01:08:21        ">
   <rdf:RDF xmlns:rdf="http://www.w3.org/1999/02/22-rdf-syntax-ns#">
      <rdf:Description rdf:about=""/>
   </rdf:RDF>
</x:xmpmeta>
                                                                                                    
                                                                                                    
                                                                                                    
                                                                                                    
                                                                                                    
                                                                                                    
                                                                                                    
                                                                                                    
                                                                                                    
                                                                                                    
                                                                                                    
                                                                                                    
                                                                                                    
                                                                                                    
                                                                                                    
                                                                                                    
                                                                                                    
                                                                                                    
                                                                                                    
                                                                                                    
                           
<?xpacket end="w"?></metadata>
<defs>
    <style>
      .cls-1 {
        fill: #fff;
        fill-rule: evenodd;
      }
    </style>
  </defs>
  <path id="logo" class="cls-1" d="M66.588,44.1a3.263,3.263,0,0,0,1.916.687c1.022,0,1.373-.575,1.373-1.949V36.69h2.06v6.389c0,2.492-1.166,3.578-3.258,3.578a4.247,4.247,0,0,1-2.092-.559v-2ZM80.267,36.69l1.693,6.6,1.613-6.6h2.012L83.029,46.5H81.161l-1.725-6.469L77.712,46.5H75.843L73.289,36.69h2.06l1.6,6.6,1.725-6.6h1.6ZM88.4,42.568V46.5H87.142V36.69h3.625c1.98,0,3.274,1.006,3.274,2.939,0,1.917-1.293,2.939-3.274,2.939H88.4Zm2.347-4.776H88.4V41.45h2.347a1.84,1.84,0,1,0,0-3.658m5.082-1.1h1.261v8.674h5V46.5h-6.26V36.69Zm10.492,0,3.832,9.808H108.88l-1.134-2.955h-4.04L102.588,46.5h-1.277l3.832-9.808h1.182Zm-2.2,5.751h3.194l-1.6-4.185ZM116.37,36.69h1.341l-3.577,5.766V46.5h-1.246V42.456l-3.545-5.766h1.374l2.826,4.632Zm8.607,0v1.118h-5v3.1h4.535v1.118h-4.535v3.339h5V46.5h-6.243V36.69h6.243Zm3.035,5.655V46.5H126.75V36.69h3.593c1.981,0,3.258.99,3.258,2.843a2.611,2.611,0,0,1-2.507,2.764L134,46.5h-1.437l-2.81-4.153h-1.741Zm0-1.07h2.3c1.293,0,2.044-.655,2.044-1.741s-0.751-1.741-2.044-1.741h-2.3v3.482Zm-94.8-.317c-0.091.3-.228,0.295-0.307-0.006l-0.147-.529s-0.2-.766-0.539-1.666a2.584,2.584,0,0,0-.4-0.829,1.038,1.038,0,0,0-1.8.573,4.078,4.078,0,0,0,.088,1A36.019,36.019,0,0,0,31.4,45.312a1.683,1.683,0,0,0,2.285.837,4.215,4.215,0,0,0,1.549-2.271c0.425-1.021,2.559-6.913,2.559-6.913,0.212-.585.375-0.554,0.364,0.067,0,0-.105,5.77-0.124,8.4a15.943,15.943,0,0,0,.349,3.69,3.065,3.065,0,0,0,1.038,1.611,2.5,2.5,0,0,0,1.785.49,2.854,2.854,0,0,0,.894-0.3,3.444,3.444,0,0,0,1.014-.9,15.752,15.752,0,0,0,1.573-2.66c1.034-2.034,3.694-8.308,3.694-8.308,0.242-.572.425-0.532,0.406,0.089,0,0-.327,10.558-0.34,14.6A8.044,8.044,0,0,0,49,56.681,3.6,3.6,0,0,0,50.826,58.7a3.207,3.207,0,0,0,2.9-.159,4.663,4.663,0,0,0,1.6-1.664,17.893,17.893,0,0,0,1.358-2.909c0.805-2.076,1.468-4.207,2.126-6.333s6.3-22.287,6.658-24.008a1.734,1.734,0,0,0,.051-0.588,1.194,1.194,0,0,0-.662-0.932,1.269,1.269,0,0,0-1.663.6c-0.309.627-8.023,19.331-8.023,19.331-0.237.574-.43,0.536-0.428-0.086,0,0,.014-6.5.046-11.884,0.017-2.921-1.423-4.553-3.434-4.879a3.767,3.767,0,0,0-2.669.594,5.874,5.874,0,0,0-1.895,2.242c-0.62,1.182-4.383,12.217-4.383,12.217-0.2.588-.376,0.561-0.391-0.06,0,0-.11-4.744-0.218-5.866-0.165-1.713-.556-4.544-2.78-4.677-2.093-.125-3.02,2.433-3.558,4.026-0.352,1.044-2.1,6.767-2.1,6.767Z" transform="translate(-30 -22)"/>
</svg>
