<svg xmlns="http://www.w3.org/2000/svg" width="37" height="37" viewBox="0 0 37 37">
  <metadata><?xpacket begin="﻿" id="W5M0MpCehiHzreSzNTczkc9d"?>
<x:xmpmeta xmlns:x="adobe:ns:meta/" x:xmptk="Adobe XMP Core 5.6-c140 79.160451, 2017/05/06-01:08:21        ">
   <rdf:RDF xmlns:rdf="http://www.w3.org/1999/02/22-rdf-syntax-ns#">
      <rdf:Description rdf:about=""/>
   </rdf:RDF>
</x:xmpmeta>
                                                                                                    
                                                                                                    
                                                                                                    
                                                                                                    
                                                                                                    
                                                                                                    
                                                                                                    
                                                                                                    
                                                                                                    
                                                                                                    
                                                                                                    
                                                                                                    
                                                                                                    
                                                                                                    
                                                                                                    
                                                                                                    
                                                                                                    
                                                                                                    
                                                                                                    
                                                                                                    
                           
<?xpacket end="w"?></metadata>
<defs>
    <style>
      .cls-1 {
        fill: #fff;
        fill-rule: evenodd;
      }
    </style>
  </defs>
  <path id="vector_icon" data-name="vector icon" class="cls-1" d="M463.5,133.85a16.65,16.65,0,1,1-16.65,16.65,16.639,16.639,0,0,1,16.65-16.65m0-1.85A18.5,18.5,0,1,0,482,150.5,18.5,18.5,0,0,0,463.5,132h0Zm0.6,16.558a0.923,0.923,0,0,0-1.249,0l-3.052,2.821a0.755,0.755,0,0,0,0,1.11,0.924,0.924,0,0,0,1.249,0l1.48-1.341V158.5a0.976,0.976,0,0,0,.971.971,1.008,1.008,0,0,0,.971-0.971v-7.353l1.48,1.341a0.924,0.924,0,0,0,1.249,0,0.755,0.755,0,0,0,0-1.11Zm7.724,0.323v-0.046a4.619,4.619,0,0,0-4.579-4.579,4.085,4.085,0,0,0-1.526.324,5.5,5.5,0,0,0-10.453,2.451v0.139a4.62,4.62,0,0,0,.879,9.157h4.625V154.94H456.1a3.217,3.217,0,0,1-.6-6.382l1.11-.232v-1.248a4.145,4.145,0,0,1,7.862-1.851l0.555,1.157,1.2-.463a2.651,2.651,0,0,1,1.017-.185,3.2,3.2,0,0,1,3.191,3.192v1.433h1.388a2.36,2.36,0,0,1,2.359,2.313,2.29,2.29,0,0,1-2.313,2.312h-1.387v0.047h-4.163v1.387h5.55v-0.046a3.681,3.681,0,0,0,3.7-3.7A3.831,3.831,0,0,0,471.825,148.881Z" transform="translate(-445 -132)"/>
</svg>
